<?xml version="1.0" encoding="UTF-8"?>
<svg width="600" height="400" viewBox="0 0 600 400" fill="none" xmlns="http://www.w3.org/2000/svg">
  <!-- Background -->
  <rect width="600" height="400" rx="20" fill="#F5F5F5"/>
  
  <!-- Grid Layout -->
  <g transform="translate(40, 40)">
    <!-- Top Row -->
    <g transform="translate(0, 0)">
      <!-- Board 1 -->
      <g transform="translate(0, 0)">
        <rect width="120" height="120" rx="10" fill="#FFFFFF" stroke="#E0E0E0" stroke-width="2"/>
        <circle cx="30" cy="30" r="12" fill="#5B4FDB"/>
        <rect x="55" y="18" width="24" height="24" fill="#FF6B6B"/>
      </g>
      
      <!-- Board 2 -->
      <g transform="translate(130, 0)">
        <rect width="120" height="120" rx="10" fill="#FFFFFF" stroke="#E0E0E0" stroke-width="2"/>
        <circle cx="90" cy="30" r="12" fill="#FF9F43"/>
        <path d="M30,18 L42,42 L18,42 Z" fill="#4CAF50"/>
      </g>
      
      <!-- Board 3 -->
      <g transform="translate(260, 0)">
        <rect width="120" height="120" rx="10" fill="#FFFFFF" stroke="#E0E0E0" stroke-width="2"/>
        <circle cx="30" cy="90" r="12" fill="#6C5CE7"/>
        <rect x="55" y="78" width="24" height="24" fill="#00B894"/>
      </g>
      
      <!-- Board 4 -->
      <g transform="translate(390, 0)">
        <rect width="120" height="120" rx="10" fill="#FFFFFF" stroke="#E0E0E0" stroke-width="2"/>
        <circle cx="90" cy="90" r="12" fill="#FF6B6B"/>
        <path d="M30,78 L42,102 L18,102 Z" fill="#5B4FDB"/>
      </g>
    </g>
    
    <!-- Bottom Row -->
    <g transform="translate(0, 160)">
      <!-- Board 5 -->
      <g transform="translate(0, 0)">
        <rect width="120" height="120" rx="10" fill="#FFFFFF" stroke="#E0E0E0" stroke-width="2"/>
        <circle cx="90" cy="30" r="12" fill="#00B894"/>
        <rect x="18" y="78" width="24" height="24" fill="#FF9F43"/>
      </g>
      
      <!-- Board 6 -->
      <g transform="translate(130, 0)">
        <rect width="120" height="120" rx="10" fill="#FFFFFF" stroke="#E0E0E0" stroke-width="2"/>
        <circle cx="30" cy="90" r="12" fill="#4CAF50"/>
        <path d="M90,18 L102,42 L78,42 Z" fill="#6C5CE7"/>
      </g>
      
      <!-- Board 7 -->
      <g transform="translate(260, 0)">
        <rect width="120" height="120" rx="10" fill="#FFFFFF" stroke="#E0E0E0" stroke-width="2"/>
        <circle cx="30" cy="30" r="12" fill="#FF6B6B"/>
        <rect x="78" y="78" width="24" height="24" fill="#5B4FDB"/>
      </g>
      
      <!-- Board 8 -->
      <g transform="translate(390, 0)">
        <rect width="120" height="120" rx="10" fill="#FFFFFF" stroke="#E0E0E0" stroke-width="2"/>
        <circle cx="90" cy="90" r="12" fill="#00B894"/>
        <path d="M30,18 L42,42 L18,42 Z" fill="#FF9F43"/>
      </g>
    </g>
    
    <!-- Connecting Lines -->
    <path d="M0,140 L510,140 M120,0 L120,280 M250,0 L250,280 M380,0 L380,280" 
          stroke="#E0E0E0" stroke-width="2" stroke-dasharray="4 4"/>
  </g>
  
  <!-- Title -->
  <text x="300" y="360" text-anchor="middle" font-family="Arial, sans-serif" font-size="24" font-weight="bold" fill="#333333">
    Octo Shap10r
  </text>
</svg>
